<svg xmlns="http://www.w3.org/2000/svg" xmlns:xlink="http://www.w3.org/1999/xlink" version="1.1" x="0px" y="0px" viewBox="0 0 100 125" enable-background="new 0 0 100 100" xml:space="preserve"><g><path d="M62.25,55.208c-0.2,1.223-1.93,1.531-2.75,2.378c-0.805,0.832-0.801,2.168-2.104,2.269   c-0.188,0.624-0.442,1.455-0.125,2.082c3.339-0.174,1.544,3.252,1.481,4.897c-0.021,0.568,0.099,1.327-0.003,1.847   c-0.139,0.705-0.638,1.202-0.662,1.806c-0.012,0.28,0.299,1.075,0.314,1.472c0.021,0.529-0.219,1.227,0.187,1.662   c0.355,0.382,1.32,0.264,1.792,0.679c0.382,0.335,0.349,0.978,0.77,1.259c0.32,0.214,1.1-0.008,1.475,0.14   c0.664,0.262,0.772,0.907,1.278,1.263c1.11,0.781,2.215-0.03,3.065,1.372c0.633,1.045,0.664,2.063,1.656,2.844   c0.319,0.252,0.972,0.376,1.222,0.675c0.422,0.503,0.182,1.368,0.547,1.744c0.812,0.834,2.097,0.037,3.104,0.982   c1.006,0.944,0.832,1.867,0.878,3.131c0.04,1.098,0.595,1.338,0.769,2.201c-0.259-0.143-0.379,0.119-0.769,0.049l-52.499,0.333   l0.499-24.958c-0.689-1.209-3.369-1.646-3.909-3.369c-0.312-0.992,1.022-2.32,1.69-3.256c0.724-1.013,1.178-1.207,1.219-2.597   c0.018-0.601-0.101-1.107-0.156-1.675c-0.077-0.801,0.205-2.022,0.037-2.74c-0.21-0.899-0.674-1.499-0.881-2.485   c-0.276-1.313-1.223-2.008-1.031-3.35c0.166-1.167,0.775-2.088,0.031-3.153l0.125-9.625c0.079-0.727-0.765-1.394-1.121-2.125   c-0.389-0.795-0.263-1.635-0.467-2.5c-0.389-1.643-0.68-3.458-0.787-5.253c-0.048-0.796-0.326-1.99-0.1-2.756   c0.265-0.893,0.781-1.18,0.85-2.21c0.091-1.38-0.194-1.507-0.847-2.437c-0.613-0.874-0.751-1.034-0.403-2.219l19.037,0.625v-4.5   c1.662,0.001,2.946,0.072,3.432,1.875c0.252,0.938-0.034,1.775,0.153,2.726c0.167,0.844,0.598,1.412,0.753,2.275   c0.218,1.212-0.044,1.304,1.254,1.784c0.903,0.334,1.688,0.349,2.628,0.466c1.335,0.166,2.915,0.525,4.224,0.894   c-0.106,1.705-0.078,1.629,1.489,0.885c0.953-0.453,2.186-1.008,3.155-1.281c1.155-0.325,2.601,0.108,3.627,0.628   c0.358,0.182,0.618,0.586,0.991,0.755c0.413,0.187,0.921,0.019,1.372,0.266c-0.344,0.397-0.824,0.765-0.824,1.303   c0.467,0.093,1.225-0.313,1.584-0.188c0.528,0.185,0.793,1.054,1.034,1.487c0.635,1.138,0.535,1.266,1.337,0.503   c0.361-0.343,0.007-0.587,0.504-0.884c0.169-0.101,1.184-0.05,1.368-0.007c0.813,0.187,1.94,0.806,1.9,1.744   c0.725,0.042,1.762-0.177,2.353,0.292c1.116,0.885,0.289,1.999,2.101,1.755c2.015-0.271,3.544-2.137,5.382-2.768   c-0.077,0.279,0.023,0.558-0.091,0.831c0.512,0.242,0.967,0.559,1.01,1.147c2.211-0.266,4.295-0.118,6.475,0.27   c0.975,0.173,1.41,0.894,2.222,1.152c0.959,0.306,1.038,0.665,0.003,1.188c-1.11,0.561-2.323,0.833-3.469,1.375   c-2.76,1.307-5.591,3.016-7.787,5.184c-1.891,1.867-3.458,3.984-5.493,5.747c-1.985,1.719-3.622,3.812-5.569,5.54L62.25,55.208z"/></g><text x="0" y="115" fill="#000000" font-size="5px" font-weight="bold" font-family="'Helvetica Neue', Helvetica, Arial-Unicode, Arial, Sans-serif">Created by Linseed Studio</text><text x="0" y="120" fill="#000000" font-size="5px" font-weight="bold" font-family="'Helvetica Neue', Helvetica, Arial-Unicode, Arial, Sans-serif">from the Noun Project</text></svg>