<svg xmlns="http://www.w3.org/2000/svg" xmlns:xlink="http://www.w3.org/1999/xlink" version="1.1" x="0px" y="0px" viewBox="0 0 64 80" enable-background="new 0 0 64 64" xml:space="preserve"><g><g><path d="M58.561,17.226c1.896,0,3.439,1.543,3.439,3.439v34.694c0,1.896-1.543,3.438-3.439,3.438H5.439    C3.543,58.799,2,57.256,2,55.359V20.665c0-1.896,1.543-3.439,3.439-3.439H58.561 M58.561,15.226H5.439    C2.448,15.226,0,17.674,0,20.665v34.694c0,2.99,2.448,5.438,5.439,5.438h53.122c2.991,0,5.438-2.448,5.438-5.438V20.665    C64,17.674,61.553,15.226,58.561,15.226L58.561,15.226z"/></g><path d="M46.34,53.592H7.072V22.433H46.34V53.592z M9.072,51.592H44.34V24.433H9.072V51.592z"/><g><rect x="50.52" y="50.313" width="7.967" height="2"/><rect x="50.52" y="45.617" width="7.967" height="2"/><rect x="50.52" y="40.924" width="7.967" height="2"/><rect x="50.52" y="36.229" width="7.967" height="2"/><path d="M54.503,33.678c-2.748,0-4.983-2.235-4.983-4.983s2.235-4.983,4.983-4.983s4.983,2.235,4.983,4.983    S57.251,33.678,54.503,33.678z M54.503,25.712c-1.646,0-2.983,1.338-2.983,2.983s1.338,2.983,2.983,2.983s2.983-1.338,2.983-2.983    S56.148,25.712,54.503,25.712z"/></g><polygon points="24.212,16.671 15.675,6.057 17.233,4.803 24.454,13.781 37.199,2.454 38.527,3.949  "/></g><text x="0" y="79" fill="#000000" font-size="5px" font-weight="bold" font-family="'Helvetica Neue', Helvetica, Arial-Unicode, Arial, Sans-serif">Created by Creative Stall</text><text x="0" y="84" fill="#000000" font-size="5px" font-weight="bold" font-family="'Helvetica Neue', Helvetica, Arial-Unicode, Arial, Sans-serif">from the Noun Project</text></svg>